<svg xmlns="http://www.w3.org/2000/svg" width="45.9" height="50" viewBox="0 0 45.9 50">
  <defs>
    <style>
      .cls-1 {
        fill: #c2c4ca;
        fill-rule: evenodd;
      }
    </style>
  </defs>
  <path id="Message" class="cls-1" d="M3918.26,6265.41c-0.26.28-.34,0.35-0.49,0.5l-4.3,4.35a2.6,2.6,0,0,1-3.65,0l-4.32-4.37c-0.16-.15-0.23-0.23-0.47-0.48A22.967,22.967,0,1,1,3918.26,6265.41Zm-15.58-24.52a3.065,3.065,0,1,0,3.1,3.06A3.075,3.075,0,0,0,3902.68,6240.89Zm8.97,0a3.065,3.065,0,1,0,3.1,3.06A3.075,3.075,0,0,0,3911.65,6240.89Zm8.96,0a3.065,3.065,0,1,0,3.1,3.06A3.082,3.082,0,0,0,3920.61,6240.89Z" transform="translate(-3888.69 -6221)"/>
</svg>
