<svg xmlns="http://www.w3.org/2000/svg" width="63.91" height="43.97" viewBox="0 0 63.91 43.97">
  <defs>
    <style>
      .cls-1 {
        fill: #c2c4ca;
        fill-rule: evenodd;
      }
    </style>
  </defs>
  <path id="Nearby" class="cls-1" d="M3637.26,6248.57c-5.73,3.53-13.7,6.65-22.43,8.78a88.267,88.267,0,0,1-20.05,2.61c-8.73,0-13.43-1.93-14.55-6.57-1.08-4.54,1.55-9.6,11.21-14.26a21.666,21.666,0,0,1,35.97-8.76c10.71-.29,15.1,2.04,16.19,6.58C3644.48,6240.61,3643.66,6244.63,3637.26,6248.57Zm-32.02-8.44a4.1,4.1,0,1,0,3.32,4.74A4.069,4.069,0,0,0,3605.24,6240.13Zm9.18-9.83a3.094,3.094,0,1,0,2.51,3.58A3.078,3.078,0,0,0,3614.42,6230.3Zm25.67,7.5c-0.43-1.8-2.21-3.61-9.73-3.79a22.05,22.05,0,0,1,2.96,6.83c0.03,0.15.06,0.31,0.08,0.46a2.055,2.055,0,0,1-.84,2.12,74.49,74.49,0,0,1-19.31,7.29h-0.01a78.157,78.157,0,0,1-18.38,2.46c-0.76,0-1.46-.02-2.09-0.04a1.8,1.8,0,0,1-1.66-1.34c-0.1-.32-0.15-0.47-0.19-0.63a21.844,21.844,0,0,1-.46-7.44c-6.6,3.62-7.15,7.01-6.72,8.82,0.87,3.6,11.5,5.83,30.25,1.27,8.37-2.04,15.97-5,21.39-8.34C3640.93,6242.04,3640.44,6239.26,3640.09,6237.8Zm-36.34,24.79a102.937,102.937,0,0,0,11.82-2.15,100.676,100.676,0,0,0,11.52-3.55,1.794,1.794,0,0,1,2.09.64,1.846,1.846,0,0,1-.05,2.2,21.553,21.553,0,0,1-25.91,6.33,1.839,1.839,0,0,1-1.05-1.94A1.814,1.814,0,0,1,3603.75,6262.59Z" transform="translate(-3580 -6224.03)"/>
</svg>
