<svg xmlns="http://www.w3.org/2000/svg" width="43.93" height="50" viewBox="0 0 43.93 50">
  <defs>
    <style>
      .cls-1 {
        fill: #c2c4ca;
        fill-rule: evenodd;
      }
    </style>
  </defs>
  <path id="Notification" class="cls-1" d="M4081.3,6260h-39.92a2,2,0,0,1,0-4h3v-16c0-7.44,5.95-13.16,12.97-15a3.99,3.99,0,1,1,7.98,0c7.03,1.84,12.98,7.56,12.98,15v16h2.99A2,2,0,0,1,4081.3,6260Zm-19.96,11a6.825,6.825,0,0,1-6.98-7h13.97A6.833,6.833,0,0,1,4061.34,6271Z" transform="translate(-4039.38 -6221)"/>
</svg>
