<svg xmlns="http://www.w3.org/2000/svg" width="42.03" height="49.97" viewBox="0 0 42.03 49.97">
  <defs>
    <style>
      .cls-1 {
        fill: #c2c4ca;
        fill-rule: evenodd;
      }
    </style>
  </defs>
  <path id="Swipe" class="cls-1" d="M3778,6271h-19a4.551,4.551,0,0,1-3.81-2.02l17.52-3.44a7.19,7.19,0,0,0,5.63-8.43l-5.37-28.18H3778a4.033,4.033,0,0,1,4,4.04v34.02A4,4,0,0,1,3778,6271Zm-5.88-8.55-21,3.72a4.011,4.011,0,0,1-4.68-3.21l-6.37-33.4a4.049,4.049,0,0,1,3.16-4.74l21.01-3.72a4,4,0,0,1,4.67,3.21l6.38,33.4A4.064,4.064,0,0,1,3772.12,6262.45Zm-8.87-22.36a4.467,4.467,0,0,0-.26-0.69,3.19,3.19,0,0,0-3.79-1.88,2.867,2.867,0,0,1-4.5,1.34,3.193,3.193,0,0,0-2.15,3.63,6.966,6.966,0,0,0,.16.74c0.31,1.12,1.58,3.91,6.79,5.49a0.971,0.971,0,0,0,1.08-.32C3764.07,6244.22,3763.61,6241.19,3763.25,6240.09Z" transform="translate(-3739.97 -6221.03)"/>
</svg>
